# xmcd
#
# Track frame offsets:
#	150
#	17407
#	48147
#
# Disc length: 1050 seconds
#
# Revision: 3
# Processed by: cddbd v1.5.2PL0 Copyright (c) Steve Scherf et al.
# Submitted via: audiograbber 1.83.01
#
DISCID=14041803
DTITLE=Paradisio - Bailando
DYEAR=1996
DGENRE=Eurodance
TTITLE0=Bailando (Radio Version)
TTITLE1=Bailando (Ritmo El Mas Locomix)
TTITLE2=Bailando (Discoteca Drums Mix)
EXTD=YEAR: 1996
EXTT0=
EXTT1=
EXTT2=
PLAYORDER=
